<?xml version="1.0" standalone="no"?>
<!DOCTYPE svg PUBLIC "-//W3C//DTD SVG 20010904//EN"
 "http://www.w3.org/TR/2001/REC-SVG-20010904/DTD/svg10.dtd">
<svg version="1.0" xmlns="http://www.w3.org/2000/svg"
 width="1764.000000pt" height="594.000000pt" viewBox="0 0 1764.000000 594.000000"
 preserveAspectRatio="xMidYMid meet">
<metadata>
Created by potrace 1.11, written by Peter Selinger 2001-2013
</metadata>
<g transform="translate(0.000000,594.000000) scale(0.100000,-0.100000)"
fill="#ffffff" fill-opacity="0.4" stroke="none">
<path d="M11231 4919 c-557 -556 -1010 -1013 -1008 -1015 2 -2 457 -4 1011 -4
l1008 -1 136 -137 c76 -75 136 -141 134 -147 -2 -5 0 -7 3 -3 9 9 195 -176
195 -193 0 -7 3 -10 6 -6 7 7 400 -384 396 -395 -1 -4 3 -8 8 -8 14 0 70 -55
70 -69 0 -6 4 -10 9 -9 12 4 116 -105 113 -117 -2 -5 0 -7 4 -3 8 9 120 -101
116 -114 -1 -4 3 -8 8 -8 15 0 70 -55 70 -70 0 -7 3 -11 6 -7 9 8 280 -265
276 -278 -2 -5 0 -7 3 -3 9 9 195 -176 195 -193 0 -7 3 -9 6 -6 8 8 80 -63 77
-75 -2 -4 2 -8 7 -8 11 0 70 -53 70 -64 0 -3 -1320 -6 -2934 -6 l-2934 0 -716
-716 c-394 -394 -715 -718 -713 -720 2 -2 2428 -3 5391 -2 l5387 3 -2690 2690
c-1480 1480 -2693 2691 -2694 2692 -2 1 -459 -453 -1016 -1008z"/>
<path d="M14 5393 c3 -5 327 -329 718 -720 l712 -713 2933 0 c1613 0 2933 -2
2933 -5 0 -11 -635 -640 -643 -637 -5 1 -7 -1 -4 -5 6 -11 -830 -843 -838
-835 -4 4 -5 2 -3 -3 2 -6 -93 -106 -210 -223 l-212 -212 -1015 0 -1014 0
1016 -1014 c559 -558 1021 -1011 1027 -1008 6 3 1219 1215 2696 2694 l2685
2688 -5394 0 c-2967 0 -5391 -3 -5387 -7z"/>
</g>
</svg>
